<svg width="117" height="30" viewBox="0 0 117 30" fill="none" xmlns="http://www.w3.org/2000/svg">
<path d="M38.5918 22.4203H35.9678V6.59376L38.5918 9.1728V22.4203Z" fill="#250D53"/>
<path d="M49.0578 22.4316H46.595V21.307C46.3082 21.7035 45.9312 22.0262 45.4952 22.2484C45.0592 22.4706 44.5766 22.5861 44.0872 22.5853C43.1733 22.6145 42.2806 22.3062 41.5794 21.7194C41.2468 21.4369 40.9826 21.0826 40.8067 20.6833C40.6307 20.284 40.5476 19.85 40.5635 19.414C40.5376 18.9941 40.6205 18.5747 40.8045 18.1964C40.9884 17.8181 41.2669 17.4937 41.6131 17.2548C42.4744 16.7344 43.4722 16.485 44.4771 16.5388H46.4338V16.4863C46.4338 15.4817 45.9053 14.9869 44.8444 14.9869C44.3515 14.9939 43.8634 15.0851 43.4012 15.2568C42.9426 15.4132 42.5104 15.6382 42.1192 15.924L40.9459 14.2296C42.172 13.333 43.6553 12.8569 45.1743 12.8727C46.1775 12.8282 47.1653 13.1314 47.9708 13.7311C48.6942 14.3009 49.0541 15.2043 49.0578 16.4376V22.4316ZM46.4338 18.8517V18.3944H44.777C43.7274 18.3944 43.2025 18.7205 43.2025 19.3727C43.1948 19.5232 43.225 19.6731 43.2906 19.8087C43.3561 19.9444 43.4547 20.0613 43.5774 20.1487C43.8979 20.3482 44.2727 20.4426 44.6495 20.4186C45.098 20.4252 45.5346 20.274 45.8828 19.9912C46.0555 19.8569 46.1941 19.6836 46.2872 19.4856C46.3803 19.2876 46.4254 19.0704 46.4188 18.8517H46.4338Z" fill="#250D53"/>
<path d="M56.2064 22.4278H53.4962L50.2949 13.0301H53.0051L54.8419 18.7092L56.675 13.0301H59.2053L61.0458 18.7092L62.8752 13.0301H65.6041L62.4178 22.4241H59.6851L57.9495 17.3073L56.2064 22.4278Z" fill="#250D53"/>
<path d="M72.4866 12.8614C73.0523 12.8593 73.6121 12.9772 74.1291 13.2072C74.646 13.4372 75.1083 13.7742 75.4854 14.1959C75.9137 14.656 76.2468 15.1962 76.4655 15.7855C76.6843 16.3748 76.7843 17.0015 76.76 17.6296C76.8001 18.9265 76.3305 20.1875 75.4517 21.1421C75.0862 21.5779 74.6313 21.9299 74.1177 22.1744C73.6042 22.4189 73.044 22.5501 72.4753 22.559C71.9354 22.5653 71.4018 22.4428 70.9187 22.2015C70.4356 21.9603 70.017 21.6074 69.6976 21.1721V22.4128H67.0736V9.17655L69.6976 6.59752V14.0685C70.0452 13.6746 70.4753 13.3622 70.9573 13.1536C71.4394 12.945 71.9615 12.8452 72.4866 12.8614ZM69.6601 17.7346C69.6308 18.4171 69.8582 19.0857 70.2974 19.6089C70.4855 19.8369 70.7221 20.0201 70.9899 20.1452C71.2577 20.2704 71.55 20.3343 71.8456 20.3324C72.1467 20.3317 72.4442 20.2668 72.7183 20.1421C72.9924 20.0173 73.2367 19.8355 73.435 19.6089C73.9002 19.0983 74.1454 18.4248 74.1172 17.7346C74.136 17.0395 73.8985 16.3617 73.45 15.8303C73.258 15.5943 73.0156 15.4045 72.7405 15.2747C72.4654 15.145 72.1647 15.0786 71.8605 15.0806C71.56 15.0776 71.2628 15.1437 70.9918 15.2737C70.7208 15.4036 70.4832 15.5941 70.2974 15.8303C69.8629 16.3649 69.6366 17.0386 69.6601 17.7271V17.7346Z" fill="#250D53"/>
<path d="M83.6536 15.3168C83.3165 15.2972 82.9798 15.3632 82.6751 15.5087C82.3703 15.6542 82.1073 15.8744 81.9105 16.1489C81.5003 16.8044 81.3002 17.5695 81.337 18.3419V22.4128H78.713V13.0114H81.337V14.2521C81.6974 13.8529 82.1266 13.5215 82.604 13.2738C83.0801 13.0146 83.6104 12.8708 84.1522 12.8539L84.1709 15.3168H83.6536Z" fill="#250D53"/>
<path d="M95.1543 17.7046C95.1689 18.3452 95.0509 18.9819 94.8077 19.5748C94.5645 20.1676 94.2014 20.7038 93.7411 21.1496C93.2742 21.6109 92.7185 21.9728 92.1077 22.2131C91.4968 22.4534 90.8436 22.5673 90.1874 22.5478C89.5308 22.5692 88.8768 22.4566 88.2652 22.2168C87.6535 21.9771 87.0972 21.6152 86.63 21.1533C86.1693 20.7084 85.8056 20.173 85.5618 19.5808C85.318 18.9886 85.1992 18.3524 85.213 17.7121C85.1978 17.0703 85.3156 16.4323 85.5588 15.8381C85.802 15.244 86.1654 14.7066 86.6263 14.2596C87.0916 13.7953 87.6467 13.4309 88.2578 13.1885C88.8688 12.9462 89.5229 12.831 90.1799 12.8502C90.8373 12.8307 91.4917 12.9453 92.1033 13.187C92.7149 13.4286 93.2709 13.7923 93.7374 14.2559C94.1977 14.7026 94.5611 15.2394 94.8049 15.8327C95.0487 16.4261 95.1676 17.0633 95.1543 17.7046ZM87.8521 17.7046C87.8234 18.3902 88.0582 19.0608 88.5081 19.5789C88.7178 19.8143 88.9764 20.0011 89.2658 20.126C89.5553 20.251 89.8685 20.3112 90.1837 20.3024C90.4997 20.311 90.8138 20.2504 91.1039 20.1248C91.394 19.9992 91.6531 19.8115 91.8631 19.5751C92.3103 19.0557 92.5434 18.3857 92.5153 17.7008C92.5413 17.0156 92.3069 16.346 91.8593 15.8266C91.6529 15.5853 91.3956 15.393 91.1058 15.2633C90.816 15.1336 90.5011 15.07 90.1837 15.0768C89.8657 15.0697 89.5501 15.1332 89.2597 15.2629C88.9693 15.3925 88.7113 15.585 88.5043 15.8266C88.056 16.3498 87.8229 17.0237 87.8521 17.7121V17.7046Z" fill="#250D53"/>
<path d="M99.7164 22.4053H97.0923V9.43896H99.7164V16.0965L102.633 12.9851H105.935L102.355 16.7974L106.078 22.4203H102.966L100.571 18.8217L99.7164 19.7138V22.4053Z" fill="#250D53"/>
<path d="M112.435 15.3018C112.098 15.2812 111.76 15.3467 111.454 15.4923C111.149 15.6378 110.885 15.8586 110.688 16.1339C110.277 16.789 110.076 17.5541 110.111 18.3269V22.3979H107.487V12.9964H110.111V14.2372C110.472 13.8379 110.901 13.5065 111.378 13.2588C111.853 12.9997 112.382 12.8558 112.923 12.8389L112.941 15.3018H112.435Z" fill="#250D53"/>
<path d="M114.148 22.0905C114.003 21.9493 113.888 21.7794 113.811 21.5917C113.734 21.404 113.697 21.2024 113.702 20.9996C113.699 20.7973 113.736 20.5964 113.812 20.409C113.888 20.2215 114.001 20.0514 114.145 19.9088C114.287 19.7631 114.457 19.6482 114.645 19.5715C114.834 19.4947 115.036 19.4577 115.239 19.4627C115.442 19.459 115.642 19.4963 115.83 19.5723C116.017 19.6483 116.188 19.7615 116.33 19.905C116.475 20.0477 116.589 20.2184 116.666 20.4065C116.742 20.5947 116.78 20.7964 116.776 20.9996C116.779 21.2021 116.742 21.4032 116.665 21.5907C116.588 21.7782 116.474 21.9482 116.33 22.0905C116.188 22.2346 116.018 22.3485 115.83 22.4252C115.643 22.5018 115.442 22.5397 115.239 22.5365C115.037 22.5397 114.836 22.5018 114.648 22.4252C114.461 22.3485 114.291 22.2346 114.148 22.0905Z" fill="#250D53"/>
<path d="M75.5004 22.1205V22.4353H77.2548V19.9687H77.0374C76.8162 21.0896 76.3476 21.7269 75.5004 22.1205Z" fill="#250D53"/>
<path d="M22.8964 0H7.10359C3.18039 0 0 3.18038 0 7.10359V22.8964C0 26.8196 3.18039 30 7.10359 30H22.8964C26.8196 30 30 26.8196 30 22.8964V7.10359C30 3.18038 26.8196 0 22.8964 0Z" fill="#250D53"/>
<path d="M17.626 24.2834H10.9422C8.42693 24.2834 6.3877 22.0342 6.3877 19.294V5.51416L15.4968 9.81006V13.1313C14.4181 13.5558 13.4922 14.2953 12.8397 15.2534C12.1871 16.2115 11.8382 17.3438 11.8382 18.503C11.8377 19.2629 11.9871 20.0154 12.2779 20.7174C12.5686 21.4194 12.9951 22.0572 13.5327 22.5941C14.0704 23.1311 14.7087 23.5567 15.4111 23.8465C16.1135 24.1364 16.8661 24.2849 17.626 24.2834Z" fill="white"/>
<path d="M23.406 18.503C23.4066 19.8684 22.9234 21.1899 22.0423 22.2329C21.1612 23.276 19.9391 23.9732 18.5928 24.2009C18.2733 24.255 17.9498 24.2826 17.6257 24.2834C16.8668 24.2834 16.1153 24.1338 15.4142 23.8433C14.7131 23.5528 14.0762 23.1269 13.5397 22.5901C13.0033 22.0533 12.5778 21.4161 12.2878 20.7148C11.9977 20.0135 11.8486 19.262 11.8491 18.503C11.8491 17.3438 12.1981 16.2115 12.8507 15.2534C13.5032 14.2953 14.4291 13.5558 15.5078 13.1313C16.1815 12.8627 16.9004 12.7253 17.6257 12.7264H17.7569C18.0372 12.7331 18.3166 12.7606 18.5928 12.8089C19.9385 13.0365 21.1601 13.7332 22.0411 14.7755C22.9221 15.8177 23.4057 17.1383 23.406 18.503Z" fill="white" stroke="#250D53" stroke-width="0.869674" stroke-miterlimit="10"/>
<path d="M22.9002 22.0754V24.2834H20.6772V23.8598C21.2283 23.5486 22.1429 23.0426 22.604 22.0754H22.9002Z" fill="white"/>
</svg>
